<svg width="300" height="300" viewBox="0 0 300 300" fill="none" xmlns="http://www.w3.org/2000/svg">
<g clip-path="url(#clip0_59_2)">
<g filter="url(#filter0_f_59_2)">
<circle cx="211" cy="206" r="50" fill="#007AFF"/>
</g>
<g filter="url(#filter1_f_59_2)">
<circle cx="102" cy="100" r="50" fill="#7200F4" fill-opacity="0.6"/>
</g>
<rect x="55" y="90" width="190" height="123" rx="25" stroke="#F5F5F5" stroke-opacity="0.5" stroke-width="10"/>
<g filter="url(#filter2_d_59_2)">
<path fill-rule="evenodd" clip-rule="evenodd" d="M76 107H74C72.8954 107 72 107.895 72 109V111V125C72 126.105 72.8954 127 74 127V127C75.1046 127 76 126.105 76 125V113C76 111.895 76.8954 111 78 111H90C91.1046 111 92 110.105 92 109V109C92 107.895 91.1046 107 90 107H76Z" fill="#FF393D"/>
</g>
<g filter="url(#filter3_d_59_2)">
<path fill-rule="evenodd" clip-rule="evenodd" d="M224 196H226C227.105 196 228 195.105 228 194V192V178C228 176.895 227.105 176 226 176V176C224.895 176 224 176.895 224 178V190C224 191.105 223.105 192 222 192H210C208.895 192 208 192.895 208 194V194C208 195.105 208.895 196 210 196H224Z" fill="#FF393D"/>
</g>
<rect x="125" y="127" width="50" height="50" rx="25" fill="#FF393D"/>
<path d="M150 141.688C149.493 141.688 149.029 142.119 149.062 142.625L149.531 155.281C149.531 155.406 149.581 155.525 149.669 155.613C149.756 155.701 149.876 155.75 150 155.75C150.124 155.75 150.244 155.701 150.331 155.613C150.419 155.525 150.469 155.406 150.469 155.281L150.937 142.625C150.971 142.119 150.507 141.688 150 141.688Z" stroke="#F5F5F5" stroke-width="3" stroke-linecap="round" stroke-linejoin="round"/>
<path d="M150 162.312C150.518 162.312 150.938 161.893 150.938 161.375C150.938 160.857 150.518 160.438 150 160.438C149.482 160.438 149.062 160.857 149.062 161.375C149.062 161.893 149.482 162.312 150 162.312Z" fill="#F5F5F5" stroke="#F5F5F5" stroke-width="3" stroke-linecap="round" stroke-linejoin="round"/>
</g>
<defs>
<filter id="filter0_f_59_2" x="61" y="56" width="300" height="300" filterUnits="userSpaceOnUse" color-interpolation-filters="sRGB">
<feFlood flood-opacity="0" result="BackgroundImageFix"/>
<feBlend mode="normal" in="SourceGraphic" in2="BackgroundImageFix" result="shape"/>
<feGaussianBlur stdDeviation="50" result="effect1_foregroundBlur_59_2"/>
</filter>
<filter id="filter1_f_59_2" x="-48" y="-50" width="300" height="300" filterUnits="userSpaceOnUse" color-interpolation-filters="sRGB">
<feFlood flood-opacity="0" result="BackgroundImageFix"/>
<feBlend mode="normal" in="SourceGraphic" in2="BackgroundImageFix" result="shape"/>
<feGaussianBlur stdDeviation="50" result="effect1_foregroundBlur_59_2"/>
</filter>
<filter id="filter2_d_59_2" x="52" y="87" width="60" height="60" filterUnits="userSpaceOnUse" color-interpolation-filters="sRGB">
<feFlood flood-opacity="0" result="BackgroundImageFix"/>
<feColorMatrix in="SourceAlpha" type="matrix" values="0 0 0 0 0 0 0 0 0 0 0 0 0 0 0 0 0 0 127 0" result="hardAlpha"/>
<feOffset/>
<feGaussianBlur stdDeviation="10"/>
<feComposite in2="hardAlpha" operator="out"/>
<feColorMatrix type="matrix" values="0 0 0 0 1 0 0 0 0 0.223529 0 0 0 0 0.239216 0 0 0 0.75 0"/>
<feBlend mode="normal" in2="BackgroundImageFix" result="effect1_dropShadow_59_2"/>
<feBlend mode="normal" in="SourceGraphic" in2="effect1_dropShadow_59_2" result="shape"/>
</filter>
<filter id="filter3_d_59_2" x="188" y="156" width="60" height="60" filterUnits="userSpaceOnUse" color-interpolation-filters="sRGB">
<feFlood flood-opacity="0" result="BackgroundImageFix"/>
<feColorMatrix in="SourceAlpha" type="matrix" values="0 0 0 0 0 0 0 0 0 0 0 0 0 0 0 0 0 0 127 0" result="hardAlpha"/>
<feOffset/>
<feGaussianBlur stdDeviation="10"/>
<feComposite in2="hardAlpha" operator="out"/>
<feColorMatrix type="matrix" values="0 0 0 0 1 0 0 0 0 0.223529 0 0 0 0 0.239216 0 0 0 0.75 0"/>
<feBlend mode="normal" in2="BackgroundImageFix" result="effect1_dropShadow_59_2"/>
<feBlend mode="normal" in="SourceGraphic" in2="effect1_dropShadow_59_2" result="shape"/>
</filter>
<clipPath id="clip0_59_2">
<rect x="50" y="85" width="200" height="133" rx="30" fill="white"/>
</clipPath>
</defs>
</svg>
